<?xml version="1.0" encoding="UTF-8" standalone="no"?>
<svg
   xmlns:dc="http://purl.org/dc/elements/1.1/"
   xmlns:cc="http://creativecommons.org/ns#"
   xmlns:rdf="http://www.w3.org/1999/02/22-rdf-syntax-ns#"
   xmlns:svg="http://www.w3.org/2000/svg"
   xmlns="http://www.w3.org/2000/svg"
   xmlns:sodipodi="http://sodipodi.sourceforge.net/DTD/sodipodi-0.dtd"
   xmlns:inkscape="http://www.inkscape.org/namespaces/inkscape"
   id="svg1"
   version="1.1"
   height="16"
   width="16"
   inkscape:version="0.91 r"
   sodipodi:docname="mypaint-size-change-symbolic.svg">
  <defs
     id="defs16" />
  <sodipodi:namedview
     pagecolor="#ffffff"
     bordercolor="#666666"
     borderopacity="1"
     objecttolerance="10"
     gridtolerance="10"
     guidetolerance="10"
     inkscape:pageopacity="0"
     inkscape:pageshadow="2"
     inkscape:window-width="640"
     inkscape:window-height="480"
     id="namedview14"
     showgrid="false"
     inkscape:zoom="40.65864"
     inkscape:cx="14.143458"
     inkscape:cy="5.7057549"
     inkscape:current-layer="svg1" />
  <title
     id="title13694">MyPaint symbolic icons</title>
  <metadata
     id="metadata7">
    <rdf:RDF>
      <cc:Work
         rdf:about="">
        <dc:format>image/svg+xml</dc:format>
        <dc:type
           rdf:resource="http://purl.org/dc/dcmitype/StillImage" />
        <dc:title>MyPaint symbolic icons</dc:title>
        <cc:license
           rdf:resource="" />
        <dc:creator>
          <cc:Agent>
            <dc:title>GNOME Project</dc:title>
          </cc:Agent>
        </dc:creator>
        <dc:contributor>
          <cc:Agent>
            <dc:title>Andrew Chadwick</dc:title>
          </cc:Agent>
        </dc:contributor>
      </cc:Work>
    </rdf:RDF>
  </metadata>
  <g
     style="display:none;opacity:0.5;fill:#859f46"
     display="none"
     transform="translate(-264.32,-333.43783)"
     id="layer2">
    <path
       inkscape:connector-curvature="0"
       id="48x48"
       d="m -2.25,4.25 48,0 0,48 -48,0 z"
       style="color:#000000;display:inline" />
    <path
       inkscape:connector-curvature="0"
       id="32x32"
       d="m 53.75,20.25 32,0 0,32 -32,0 z"
       style="color:#000000;display:inline" />
    <path
       inkscape:connector-curvature="0"
       id="24x24"
       d="m 93.75,28.25 24,0 0,24 -24,0 z"
       style="color:#000000;display:inline" />
    <path
       inkscape:connector-curvature="0"
       id="22x22"
       d="m 125.75,30.25 22,0 0,22 -22,0 z"
       style="color:#000000;display:inline" />
    <path
       inkscape:connector-curvature="0"
       id="16x16"
       d="m 155.75,36.25 16,0 0,16 -16,0 z"
       style="color:#000000;display:inline" />
  </g>
  <path
     style="color:#000000;fill:#bebebe"
     d="m 10.600645,0.06300951 -0.478515,3.83203129 3,1 2.070312,-4.83203129 -4.591797,0 z"
     id="path4760-9-2"
     inkscape:connector-curvature="0" />
  <path
     inkscape:connector-curvature="0"
     d="m 11.021739,5.0556483 c -0.91889,-0.28822 -1.9491999,-0.11799 -2.7590999,0.52727 -0.62007,0.49396 -1.0021,1.1541 -1.1087,1.881 -0.11021,0.75177 0.24423,1.8197 -1.7198,3.5211997 -0.0132,0.004 -0.0277,0.0118 -0.0405,0.0178 -0.1175,0.0507 -0.2207,0.13414 -0.27118,0.26277 -0.101,0.257 0.009,0.52712 0.26597,0.62809 2.2149,-0.17805 4.0888,-0.25685 5.8879999,-1.1539 0.32735,-0.17953 0.51126,-0.30346 0.71681,-0.46722 1.2959,-1.0323997 1.5119,-2.9141997 0.47958,-4.2100997 -0.38715,-0.48595 -0.89967,-0.83388 -1.451,-1.0068 z"
     style="color:#000000;fill:#bebebe"
     id="path5783-32-1-2-3" />
  <path
     style="color:#000000;font-style:normal;font-variant:normal;font-weight:normal;font-stretch:normal;font-size:medium;line-height:normal;font-family:sans-serif;text-indent:0;text-align:start;text-decoration:none;text-decoration-line:none;text-decoration-style:solid;text-decoration-color:#000000;letter-spacing:normal;word-spacing:normal;text-transform:none;direction:ltr;block-progression:tb;writing-mode:lr-tb;baseline-shift:baseline;text-anchor:start;white-space:normal;clip-rule:nonzero;display:inline;overflow:visible;visibility:visible;opacity:1;isolation:auto;mix-blend-mode:normal;color-interpolation:sRGB;color-interpolation-filters:linearRGB;solid-color:#000000;solid-opacity:1;fill:#bebebe;fill-opacity:1;fill-rule:nonzero;stroke:none;stroke-width:1.29999995;stroke-linecap:butt;stroke-linejoin:miter;stroke-miterlimit:4;stroke-dasharray:none;stroke-dashoffset:0;stroke-opacity:1;color-rendering:auto;image-rendering:auto;shape-rendering:auto;text-rendering:auto;enable-background:accumulate"
     d="M 4.9492188,5.9042969 C 2.2726356,6.1190266 0.26393788,8.4777015 0.47851562,11.154297 0.69309326,13.830893 3.0519078,15.839426 5.7285156,15.625 8.4051235,15.410574 10.413493,13.053573 10.199219,10.376953 L 8.9042969,10.480469 C 9.0625091,12.456783 7.6013054,14.171754 5.625,14.330078 3.6486946,14.488402 1.9338266,13.027078 1.7753906,11.050781 1.6169546,9.0744851 3.0764473,7.3597202 5.0527344,7.2011719 7.0290215,7.0426236 8.7456363,8.5022376 8.9042969,10.478516 L 10.199219,10.375 C 9.9843369,7.6984291 7.6258019,5.6895671 4.9492188,5.9042969 Z"
     id="path3344"
     inkscape:connector-curvature="0" />
</svg>
